<svg
	xmlns="http://www.w3.org/2000/svg"
	xmlns:xlink="http://www.w3.org/1999/xlink" version="1.1" viewBox="0 0.17 224.73 33.35">
	<g fill="none" fill-rule="evenodd" stroke="none" stroke-width="1">
		<path id="INSP" fill="#3C4249" d="M37.1752225,20.2075916 L22.9111445,0.864412105 L14.7785951,0.864412105 L14.7785951,32.8121371 L22.3384911,32.8121371 L22.3384911,12.8306978 L36.9465966,32.8121371 L44.7372959,32.8121371 L44.7372959,0.864412105 L37.1752225,0.864412105 L37.1752225,20.2075916 Z M71.7151506,15.3859079 C70.3412179,14.7671867 68.8605931,14.2244488 67.2754536,13.7598651 C65.6903141,13.2952815 64.2118667,12.9479292 62.8357566,12.7156374 C61.4618239,12.4811746 60.3165171,12.1251385 59.3998361,11.6410163 C58.4831552,11.1568941 58.0259034,10.5468566 58.0259034,9.81090401 C58.0259034,8.88173669 58.4635587,8.11756169 59.343224,7.51620808 C60.2207119,6.91702541 61.4052118,6.61526313 62.8945461,6.61526313 C64.4971047,6.61526313 66.1671624,6.92570922 67.9068965,7.54443045 C69.6422759,8.16532263 71.1033042,9.01633569 72.287804,10.1018115 L75.8391261,4.75692848 C72.4402212,1.69805755 68.144232,0.167536613 62.9511582,0.167536613 C59.2082258,0.167536613 56.172945,1.12709726 53.8431384,3.0440476 C51.5133317,4.96099794 50.3484284,7.31213862 50.3484284,10.1018115 C50.3484284,12.3465756 50.9798713,14.1766879 52.2405798,15.5899774 C53.4991108,17.003267 55.0363478,17.99105 56.8501131,18.5511555 C58.6638785,19.113432 60.4776439,19.5780157 62.2935866,19.9470774 C64.1051746,20.3139683 65.6445889,20.7785519 66.90312,21.3408284 C68.1638285,21.9031049 68.793094,22.6672799 68.793094,23.6355244 C68.793094,24.6428459 68.3249553,25.4743204 67.3908552,26.1321188 C66.4545778,26.7920881 65.0501616,27.1199018 63.1797841,27.1199018 C61.194005,27.1199018 59.2474189,26.7139339 57.3378484,25.899827 C55.4282778,25.0857201 53.9019279,24.100108 52.7544437,22.9386489 L49.3185232,28.6873289 C50.7686645,30.120157 52.678235,31.2837872 55.0472347,32.1738773 C57.414057,33.0639675 60.0486982,33.5090126 62.9511582,33.5090126 C67.266744,33.5090126 70.6068594,32.5798453 72.975859,30.7215107 C75.3426813,28.863176 76.5271812,26.3644106 76.5271812,23.2273854 C76.5271812,21.3321446 76.067752,19.7039309 75.1510711,18.349257 C74.2365675,16.9945831 73.0890833,16.0068001 71.7151506,15.3859079 L71.7151506,15.3859079 Z M99.5813801,14.1376107 C98.836713,14.8540248 97.7959208,15.2122318 96.4611811,15.2122318 L89.0145094,15.2122318 L89.0145094,7.54443045 L96.4611811,7.54443045 C97.7959208,7.54443045 98.836713,7.89395367 99.5813801,8.59082916 C100.326047,9.28770465 100.698381,10.1973334 100.698381,11.3197154 C100.698381,12.4811746 100.326047,13.4211967 99.5813801,14.1376107 L99.5813801,14.1376107 Z M105.482105,3.88637685 C103.513745,1.87390464 100.813783,0.864412105 97.3756847,0.864412105 L81.452436,0.864412105 L81.452436,32.8121371 L89.0145094,32.8121371 L89.0145094,21.8336345 L97.3756847,21.8336345 C100.889991,21.8336345 103.609551,20.8371676 105.538718,18.842063 C107.467885,16.8491294 108.432468,14.3416802 108.432468,11.3197154 C108.432468,8.3780759 107.448288,5.89884907 105.482105,3.88637685 L105.482105,3.88637685 Z M0.000653216821,10.1777948 L7.56054922,3.23074944 L7.56054922,0.864412105 L0.000653216821,0.864412105 L0.000653216821,10.1777948 Z M0.000653216821,32.8121371 L7.56054922,32.8121371 L7.56054922,11.745222 L0.000653216821,17.8651348 L0.000653216821,32.8121371 Z"></path>
		<path id="IRCD" fill="#EF4F45" d="M176.136867,6.90617065 C177.70241,6.90617065 179.135133,7.32299338 180.432857,8.15446787 C181.730581,8.98811332 182.743067,10.0627344 183.468137,11.3783311 L189.769502,8.29992164 C188.471778,5.89884907 186.677609,3.9428216 184.384818,2.43401017 C182.094205,0.9230278 179.344162,0.167536613 176.136867,0.167536613 C171.211613,0.167536613 167.124653,1.72845088 163.878165,4.84376655 C160.631677,7.96125317 159.009522,11.9601462 159.009522,16.8382746 C159.009522,21.718574 160.631677,25.717467 163.878165,28.8327827 C167.124653,31.9502693 171.211613,33.5090126 176.136867,33.5090126 C179.344162,33.5090126 182.102914,32.7535214 184.413124,31.24471 C186.723335,29.7337276 188.508794,27.7581616 189.769502,25.3201829 L183.468137,22.3568338 C182.819275,23.6746015 181.835095,24.7383678 180.517775,25.5524747 C179.200454,26.3644106 177.741603,26.7703786 176.136867,26.7703786 C173.426018,26.7703786 171.17242,25.8325275 169.378251,23.9546543 C167.581904,22.076781 166.68482,19.7039309 166.68482,16.8382746 C166.68482,13.9726184 167.581904,11.6019392 169.378251,9.72406594 C171.17242,7.84619273 173.426018,6.90617065 176.136867,6.90617065 L176.136867,6.90617065 Z M146.121554,14.1376107 C145.357291,14.8540248 144.307789,15.2122318 142.970872,15.2122318 L135.5242,15.2122318 L135.5242,7.54443045 L142.970872,7.54443045 C144.268596,7.54443045 145.309388,7.89395367 146.093248,8.59082916 C146.874931,9.28770465 147.266861,10.1973334 147.266861,11.3197154 C147.266861,12.4811746 146.885818,13.4211967 146.121554,14.1376107 L146.121554,14.1376107 Z M152.795253,17.943289 C154.225798,16.239092 154.942159,14.0312341 154.942159,11.3197154 C154.942159,8.33899877 153.949269,5.85108813 151.96349,3.85598353 C149.977711,1.86304988 147.286458,0.864412105 143.887553,0.864412105 L127.964304,0.864412105 L127.964304,32.8121371 L135.5242,32.8121371 L135.5242,21.8336345 L140.279619,21.8336345 L146.578806,32.8121371 L155.229574,32.8121371 L147.667501,21.0781433 C149.65328,20.6917139 151.362531,19.6474861 152.795253,17.943289 L152.795253,17.943289 Z M214.48505,23.4900706 C212.825879,25.2528834 210.485185,26.1321188 207.469501,26.1321188 L201.856191,26.1321188 L201.856191,7.54443045 L207.526113,7.54443045 C210.657199,7.54443045 213.015312,8.40629827 214.600451,10.1300339 C216.185591,11.8537695 216.97816,14.1093884 216.97816,16.8968903 C216.97816,19.5302547 216.146398,21.7272578 214.48505,23.4900706 L214.48505,23.4900706 Z M220.013441,5.24973451 C216.882355,2.32763354 212.69959,0.864412105 207.469501,0.864412105 L194.294118,0.864412105 L194.294118,32.8121371 L207.526113,32.8121371 C212.719187,32.8121371 216.882355,31.3597705 220.013441,28.4550371 C223.144527,25.5524747 224.71007,21.6990355 224.71007,16.8968903 C224.71007,12.0556681 223.144527,8.17400644 220.013441,5.24973451 L220.013441,5.24973451 Z M113.186362,10.4296252 L120.746258,3.48257984 L120.746258,0.864412105 L113.186362,0.864412105 L113.186362,10.4296252 Z M113.186362,32.8121371 L120.746258,32.8121371 L120.746258,11.96883 L113.186362,18.0887428 L113.186362,32.8121371 Z"></path>
	</g>
</svg>
