<?xml version="1.0" encoding="UTF-8"?>
<svg width="227px" height="50px" viewBox="0 0 227 50" version="1.1" xmlns="http://www.w3.org/2000/svg" xmlns:xlink="http://www.w3.org/1999/xlink">
    <!-- Generator: Sketch 41.1 (35376) - http://www.bohemiancoding.com/sketch -->
    <title>Group</title>
    <desc>Created with Sketch.</desc>
    <defs></defs>
    <g id="Page-1" stroke="none" stroke-width="1" fill="none" fill-rule="evenodd">
        <g id="Group" fill="#FFFFFF">
            <g id="GitHub_Logo" transform="translate(63.142857, 3.000000)">
                <path d="M31.4275521,18.8563692 L17.715861,18.8563692 C17.3621622,18.8563692 17.0750579,19.1427077 17.0750579,19.4950462 L17.0750579,26.1732308 C17.0750579,26.5255692 17.3621622,26.8122462 17.715861,26.8122462 L23.064834,26.8122462 L23.064834,35.1092923 C23.064834,35.1092923 21.8637529,35.5171385 18.5431969,35.5171385 C14.625668,35.5171385 9.15301931,34.0912 9.15301931,22.1035692 C9.15301931,10.1132308 14.8516139,8.53566154 20.2016062,8.53566154 C24.8326486,8.53566154 26.8277683,9.34796923 28.0971429,9.73923077 C28.4960309,9.86107692 28.8650193,9.46541538 28.8650193,9.11273846 L30.3946564,2.66030769 C30.3946564,2.49547692 30.3385946,2.2968 30.1496834,2.16175385 C29.6342548,1.79553846 26.4890193,0.0423076923 18.5431969,0.0423076923 C9.38949807,0.0423076923 2.84217094e-14,3.92175385 2.84217094e-14,22.5709846 C2.84217094e-14,41.2208923 10.7502703,44 19.8091737,44 C27.3098996,44 31.8600772,40.8069538 31.8600772,40.8069538 C32.0476293,40.7037231 32.0680154,40.4427692 32.0680154,40.3229538 L32.0680154,19.4950462 C32.0680154,19.1427077 31.781251,18.8563692 31.4275521,18.8563692" id="Fill-1"></path>
                <path d="M102.091892,2.27683077 C102.091892,1.92144615 101.809205,1.63476923 101.455506,1.63476923 L93.7349498,1.63476923 C93.3822703,1.63476923 93.0955058,1.92144615 93.0955058,2.27683077 C93.0955058,2.27852308 93.0975444,17.1396923 93.0975444,17.1396923 L81.0632896,17.1396923 L81.0632896,2.27683077 C81.0632896,1.92144615 80.7792432,1.63476923 80.4262239,1.63476923 L72.7060077,1.63476923 C72.3546873,1.63476923 72.0682625,1.92144615 72.0682625,2.27683077 L72.0682625,42.5209231 C72.0682625,42.8759692 72.3546873,43.1650154 72.7060077,43.1650154 L80.4262239,43.1650154 C80.7792432,43.1650154 81.0632896,42.8759692 81.0632896,42.5209231 L81.0632896,25.3071077 L93.0975444,25.3071077 C93.0975444,25.3071077 93.0764788,42.5195692 93.0764788,42.5209231 C93.0764788,42.8759692 93.3629035,43.1650154 93.7159228,43.1650154 L101.454826,43.1650154 C101.808525,43.1650154 102.091212,42.8759692 102.091892,42.5209231 L102.091892,2.27683077" id="Fill-2"></path>
                <path d="M45.9964788,7.55784615 C45.9964788,4.78855385 43.7675985,2.55064615 41.0178533,2.55064615 C38.2708263,2.55064615 36.0402471,4.78855385 36.0402471,7.55784615 C36.0402471,10.3240923 38.2708263,12.5680923 41.0178533,12.5680923 C43.7675985,12.5680923 45.9964788,10.3240923 45.9964788,7.55784615" id="Fill-3"></path>
                <path d="M45.4443552,34.0316308 L45.4443552,15.4548308 C45.4443552,15.1021538 45.15861,14.8137846 44.8055907,14.8137846 L37.1094981,14.8137846 C36.7564788,14.8137846 36.4404942,15.1766154 36.4404942,15.5292923 L36.4404942,42.1442154 C36.4404942,42.9264 36.9297606,43.1589231 37.5630888,43.1589231 L44.4970811,43.1589231 C45.2578224,43.1589231 45.4443552,42.7869538 45.4443552,42.1316923 L45.4443552,34.0316308" id="Fill-4"></path>
                <path d="M131.433266,14.8743692 L123.77183,14.8743692 C123.42051,14.8743692 123.134425,15.1627385 123.134425,15.5177846 L123.134425,35.2507692 C123.134425,35.2507692 121.188232,36.6692615 118.425575,36.6692615 C115.663259,36.6692615 114.930039,35.4206769 114.930039,32.7261846 L114.930039,15.5177846 C114.930039,15.1627385 114.644633,14.8743692 114.292973,14.8743692 L106.517375,14.8743692 C106.166394,14.8743692 105.87895,15.1627385 105.87895,15.5177846 L105.87895,34.0292615 C105.87895,42.0325231 110.356757,43.9905231 116.516757,43.9905231 C121.570131,43.9905231 125.644633,41.2093846 125.644633,41.2093846 C125.644633,41.2093846 125.838641,42.6749231 125.926301,42.8488923 C126.014301,43.0221846 126.242965,43.1971692 126.489977,43.1971692 L131.436664,43.1755077 C131.787645,43.1755077 132.075089,42.8864615 132.075089,42.5331077 L132.07271,15.5177846 C132.07271,15.1627385 131.786286,14.8743692 131.433266,14.8743692" id="Fill-5"></path>
                <path d="M149.35095,36.6448923 C146.693622,36.5643385 144.891151,35.3631385 144.891151,35.3631385 L144.891151,22.6187077 C144.891151,22.6187077 146.669498,21.5329231 148.851151,21.3386462 C151.610069,21.0925846 154.268417,21.9228308 154.268417,28.4788308 C154.268417,35.3922462 153.068695,36.7565846 149.35095,36.6448923 Z M152.372849,13.9703385 C148.021436,13.9703385 145.061714,15.9043077 145.061714,15.9043077 L145.061714,2.27683077 C145.061714,1.92144615 144.776649,1.63476923 144.424649,1.63476923 L136.682347,1.63476923 C136.330347,1.63476923 136.044263,1.92144615 136.044263,2.27683077 L136.044263,42.5209231 C136.044263,42.8759692 136.330347,43.1650154 136.683367,43.1650154 L142.055104,43.1650154 C142.297019,43.1650154 142.480154,43.0408 142.615382,42.8231692 C142.748911,42.6068923 142.94156,40.9677231 142.94156,40.9677231 C142.94156,40.9677231 146.107521,43.9563385 152.100695,43.9563385 C159.136618,43.9563385 163.171707,40.4011385 163.171707,27.9961846 C163.171707,15.5912308 156.72732,13.9703385 152.372849,13.9703385 L152.372849,13.9703385 Z" id="Fill-6"></path>
                <path d="M67.6336062,14.8100615 L61.8422548,14.8100615 C61.8422548,14.8100615 61.8334208,7.19027692 61.8334208,7.18858462 C61.8334208,6.90021538 61.6842625,6.75603077 61.3495907,6.75603077 L53.4574517,6.75603077 C53.1506409,6.75603077 52.9858533,6.8904 52.9858533,7.18418462 L52.9858533,15.0601846 C52.9858533,15.0601846 49.0309498,16.0112615 48.7635521,16.0880923 C48.4971737,16.1649231 48.3011274,16.4096308 48.3011274,16.7013846 L48.3011274,21.6507077 C48.3011274,22.0067692 48.5865328,22.2937846 48.9395521,22.2937846 L52.9858533,22.2937846 L52.9858533,34.2001846 C52.9858533,43.0438462 59.2131274,43.9126769 63.4153822,43.9126769 C65.3354131,43.9126769 67.6322471,43.2983692 68.0114286,43.1589231 C68.2407722,43.0749846 68.3739614,42.8384 68.3739614,42.5818462 L68.380417,37.1373538 C68.380417,36.7823077 68.0793822,36.4949538 67.7402934,36.4949538 C67.4029035,36.4949538 66.5395521,36.6316923 65.6507181,36.6316923 C62.8061776,36.6316923 61.8422548,35.3140615 61.8422548,33.6085538 C61.8422548,31.9044 61.8419151,22.2937846 61.8419151,22.2937846 L67.6336062,22.2937846 C67.9866255,22.2937846 68.2723707,22.0067692 68.2723707,21.6507077 L68.2723707,15.4514462 C68.2723707,15.0964 67.9866255,14.8100615 67.6336062,14.8100615" id="Fill-7"></path>
            </g>
            <path d="M0,25.633467 C0,36.9584555 7.34385454,46.5651047 17.5295778,49.954576 C18.8120379,50.1906116 19.2793884,49.3991056 19.2793884,48.719323 C19.2793884,48.1103512 19.2573585,46.4990147 19.2447699,44.3605321 C12.114921,45.9089257 10.6105874,40.9238537 10.6105874,40.9238537 C9.44457145,37.9623936 7.76399793,37.1740347 7.76399793,37.1740347 C5.43668683,35.5847282 7.94023785,35.6161996 7.94023785,35.6161996 C10.513026,35.7971603 11.8662968,38.2582249 11.8662968,38.2582249 C14.152695,42.1748424 17.8663219,41.0434451 19.3265956,40.3872661 C19.559484,38.7318697 20.2219573,37.6020459 20.9536677,36.9616026 C15.2620624,36.314865 9.27777296,34.1150132 9.27777296,24.2927848 C9.27777296,21.494976 10.2769904,19.2054306 11.9166511,17.4147071 C11.6522912,16.766396 10.7726651,14.1589893 12.1684224,10.6310438 C12.1684224,10.6310438 14.3194935,9.9418198 19.2164456,13.2589069 C21.260514,12.6892743 23.4540716,12.4060315 25.633467,12.3950166 C27.8112889,12.4060315 30.0032729,12.6892743 32.0504884,13.2589069 C36.9442933,9.9418198 39.0922174,10.6310438 39.0922174,10.6310438 C40.4911217,14.1589893 39.6114957,16.766396 39.3487094,17.4147071 C40.9915172,19.2054306 41.9828668,21.494976 41.9828668,24.2927848 C41.9828668,34.1401903 35.9891359,36.3069972 30.2802213,36.9411462 C31.1991866,37.7326523 32.019017,39.2967816 32.019017,41.6870355 C32.019017,45.1142725 31.9875456,47.8790363 31.9875456,48.719323 C31.9875456,49.4053999 32.4501754,50.2032002 33.7499448,49.9530025 C43.9278002,46.5556633 51.2653604,36.9553083 51.2653604,25.633467 C51.2653604,11.4760513 39.7877356,0 25.6303199,0 C11.4776248,0 0,11.4760513 0,25.633467 Z" id="Fill-50"></path>
        </g>
    </g>
</svg>